<?xml version="1.0" encoding="utf-8" standalone="no"?>
<!DOCTYPE svg PUBLIC "-//W3C//DTD SVG 1.1//EN"
  "http://www.w3.org/Graphics/SVG/1.1/DTD/svg11.dtd">
<svg xmlns:xlink="http://www.w3.org/1999/xlink" width="419.845106pt" height="314.319361pt" viewBox="0 0 419.845106 314.319361" xmlns="http://www.w3.org/2000/svg" version="1.1">
 <metadata>
  <rdf:RDF xmlns:dc="http://purl.org/dc/elements/1.1/" xmlns:cc="http://creativecommons.org/ns#" xmlns:rdf="http://www.w3.org/1999/02/22-rdf-syntax-ns#">
   <cc:Work>
    <dc:type rdf:resource="http://purl.org/dc/dcmitype/StillImage"/>
    <dc:date>2023-10-23T14:00:01.433523</dc:date>
    <dc:format>image/svg+xml</dc:format>
    <dc:creator>
     <cc:Agent>
      <dc:title>Matplotlib v3.7.1, https://matplotlib.org/</dc:title>
     </cc:Agent>
    </dc:creator>
   </cc:Work>
  </rdf:RDF>
 </metadata>
 <defs>
  <style type="text/css">*{stroke-linejoin: round; stroke-linecap: butt}</style>
 </defs>
 <g id="figure_1">
  <g id="patch_1">
   <path d="M 0 314.319361 
L 419.845106 314.319361 
L 419.845106 -0 
L 0 -0 
L 0 314.319361 
z
" style="fill: none"/>
  </g>
  <g id="axes_1">
   <g id="patch_2">
    <path d="M 86.075606 261.98145 
L 412.645106 261.98145 
L 412.645106 36.999 
L 86.075606 36.999 
z
" style="fill: #ffffff"/>
   </g>
   <g id="matplotlib.axis_1">
    <g id="xtick_1">
     <g id="line2d_1">
      <defs>
       <path id="m7011cc21c0" d="M 0 0 
L 0 -6 
" style="stroke: #000000; stroke-width: 0.8"/>
      </defs>
      <g>
       <use xlink:href="#m7011cc21c0" x="178.598102" y="261.98145" style="stroke: #000000; stroke-width: 0.8"/>
      </g>
     </g>
     <g id="line2d_2">
      <defs>
       <path id="mc40e91bd62" d="M 0 0 
L 0 6 
" style="stroke: #000000; stroke-width: 0.8"/>
      </defs>
      <g>
       <use xlink:href="#mc40e91bd62" x="178.598102" y="36.999" style="stroke: #000000; stroke-width: 0.8"/>
      </g>
     </g>
     <g id="text_1">
      <!-- $\mathdefault{10^{-2}}$ -->
      <g transform="translate(160.621682 279.318447) scale(0.2 -0.2)">
       <defs>
        <path id="CMR17-31" d="M 1702 4058 
C 1702 4192 1696 4192 1606 4192 
C 1357 3916 979 3827 621 3827 
C 602 3827 570 3827 563 3808 
C 557 3795 557 3782 557 3648 
C 755 3648 1088 3686 1344 3839 
L 1344 461 
C 1344 236 1331 160 781 160 
L 589 160 
L 589 0 
C 896 0 1216 0 1523 0 
C 1830 0 2150 0 2458 0 
L 2458 160 
L 2266 160 
C 1715 160 1702 230 1702 458 
L 1702 4058 
z
" transform="scale(0.015625)"/>
        <path id="CMR17-30" d="M 2688 2025 
C 2688 2416 2682 3080 2413 3591 
C 2176 4039 1798 4198 1466 4198 
C 1158 4198 768 4058 525 3597 
C 269 3118 243 2524 243 2025 
C 243 1661 250 1106 448 619 
C 723 -39 1216 -128 1466 -128 
C 1760 -128 2208 -7 2470 600 
C 2662 1042 2688 1559 2688 2025 
z
M 1466 -26 
C 1056 -26 813 325 723 812 
C 653 1188 653 1738 653 2096 
C 653 2588 653 2997 736 3387 
C 858 3929 1216 4096 1466 4096 
C 1728 4096 2067 3923 2189 3400 
C 2272 3036 2278 2607 2278 2096 
C 2278 1680 2278 1169 2202 792 
C 2067 95 1690 -26 1466 -26 
z
" transform="scale(0.015625)"/>
        <path id="CMSY10-0" d="M 4218 1472 
C 4326 1472 4442 1472 4442 1600 
C 4442 1728 4326 1728 4218 1728 
L 755 1728 
C 646 1728 531 1728 531 1600 
C 531 1472 646 1472 755 1472 
L 4218 1472 
z
" transform="scale(0.015625)"/>
        <path id="CMR17-32" d="M 2669 989 
L 2554 989 
C 2490 536 2438 459 2413 420 
C 2381 369 1920 369 1830 369 
L 602 369 
C 832 619 1280 1072 1824 1597 
C 2214 1967 2669 2402 2669 3035 
C 2669 3790 2067 4224 1395 4224 
C 691 4224 262 3604 262 3030 
C 262 2780 448 2748 525 2748 
C 589 2748 781 2787 781 3010 
C 781 3207 614 3264 525 3264 
C 486 3264 448 3258 422 3245 
C 544 3790 915 4058 1306 4058 
C 1862 4058 2227 3617 2227 3035 
C 2227 2479 1901 2000 1536 1584 
L 262 146 
L 262 0 
L 2515 0 
L 2669 989 
z
" transform="scale(0.015625)"/>
       </defs>
       <use xlink:href="#CMR17-31" transform="scale(0.996264)"/>
       <use xlink:href="#CMR17-30" transform="translate(45.690477 0) scale(0.996264)"/>
       <use xlink:href="#CMSY10-0" transform="translate(91.380954 36.153639) scale(0.697382)"/>
       <use xlink:href="#CMR17-32" transform="translate(145.621947 36.153639) scale(0.697382)"/>
      </g>
     </g>
    </g>
    <g id="xtick_2">
     <g id="line2d_3">
      <g>
       <use xlink:href="#m7011cc21c0" x="307.619177" y="261.98145" style="stroke: #000000; stroke-width: 0.8"/>
      </g>
     </g>
     <g id="line2d_4">
      <g>
       <use xlink:href="#mc40e91bd62" x="307.619177" y="36.999" style="stroke: #000000; stroke-width: 0.8"/>
      </g>
     </g>
     <g id="text_2">
      <!-- $\mathdefault{10^{-1}}$ -->
      <g transform="translate(289.642757 279.318447) scale(0.2 -0.2)">
       <use xlink:href="#CMR17-31" transform="scale(0.996264)"/>
       <use xlink:href="#CMR17-30" transform="translate(45.690477 0) scale(0.996264)"/>
       <use xlink:href="#CMSY10-0" transform="translate(91.380954 36.153639) scale(0.697382)"/>
       <use xlink:href="#CMR17-31" transform="translate(145.621947 36.153639) scale(0.697382)"/>
      </g>
     </g>
    </g>
    <g id="xtick_3">
     <g id="line2d_5">
      <defs>
       <path id="m3aa6163ebd" d="M 0 0 
L 0 -3 
" style="stroke: #000000; stroke-width: 0.6"/>
      </defs>
      <g>
       <use xlink:href="#m3aa6163ebd" x="88.41624" y="261.98145" style="stroke: #000000; stroke-width: 0.6"/>
      </g>
     </g>
     <g id="line2d_6">
      <defs>
       <path id="mebdef15ba0" d="M 0 0 
L 0 3 
" style="stroke: #000000; stroke-width: 0.6"/>
      </defs>
      <g>
       <use xlink:href="#mebdef15ba0" x="88.41624" y="36.999" style="stroke: #000000; stroke-width: 0.6"/>
      </g>
     </g>
    </g>
    <g id="xtick_4">
     <g id="line2d_7">
      <g>
       <use xlink:href="#m3aa6163ebd" x="111.135724" y="261.98145" style="stroke: #000000; stroke-width: 0.6"/>
      </g>
     </g>
     <g id="line2d_8">
      <g>
       <use xlink:href="#mebdef15ba0" x="111.135724" y="36.999" style="stroke: #000000; stroke-width: 0.6"/>
      </g>
     </g>
    </g>
    <g id="xtick_5">
     <g id="line2d_9">
      <g>
       <use xlink:href="#m3aa6163ebd" x="127.255454" y="261.98145" style="stroke: #000000; stroke-width: 0.6"/>
      </g>
     </g>
     <g id="line2d_10">
      <g>
       <use xlink:href="#mebdef15ba0" x="127.255454" y="36.999" style="stroke: #000000; stroke-width: 0.6"/>
      </g>
     </g>
    </g>
    <g id="xtick_6">
     <g id="line2d_11">
      <g>
       <use xlink:href="#m3aa6163ebd" x="139.758888" y="261.98145" style="stroke: #000000; stroke-width: 0.6"/>
      </g>
     </g>
     <g id="line2d_12">
      <g>
       <use xlink:href="#mebdef15ba0" x="139.758888" y="36.999" style="stroke: #000000; stroke-width: 0.6"/>
      </g>
     </g>
    </g>
    <g id="xtick_7">
     <g id="line2d_13">
      <g>
       <use xlink:href="#m3aa6163ebd" x="149.974938" y="261.98145" style="stroke: #000000; stroke-width: 0.6"/>
      </g>
     </g>
     <g id="line2d_14">
      <g>
       <use xlink:href="#mebdef15ba0" x="149.974938" y="36.999" style="stroke: #000000; stroke-width: 0.6"/>
      </g>
     </g>
    </g>
    <g id="xtick_8">
     <g id="line2d_15">
      <g>
       <use xlink:href="#m3aa6163ebd" x="158.612484" y="261.98145" style="stroke: #000000; stroke-width: 0.6"/>
      </g>
     </g>
     <g id="line2d_16">
      <g>
       <use xlink:href="#mebdef15ba0" x="158.612484" y="36.999" style="stroke: #000000; stroke-width: 0.6"/>
      </g>
     </g>
    </g>
    <g id="xtick_9">
     <g id="line2d_17">
      <g>
       <use xlink:href="#m3aa6163ebd" x="166.094668" y="261.98145" style="stroke: #000000; stroke-width: 0.6"/>
      </g>
     </g>
     <g id="line2d_18">
      <g>
       <use xlink:href="#mebdef15ba0" x="166.094668" y="36.999" style="stroke: #000000; stroke-width: 0.6"/>
      </g>
     </g>
    </g>
    <g id="xtick_10">
     <g id="line2d_19">
      <g>
       <use xlink:href="#m3aa6163ebd" x="172.694421" y="261.98145" style="stroke: #000000; stroke-width: 0.6"/>
      </g>
     </g>
     <g id="line2d_20">
      <g>
       <use xlink:href="#mebdef15ba0" x="172.694421" y="36.999" style="stroke: #000000; stroke-width: 0.6"/>
      </g>
     </g>
    </g>
    <g id="xtick_11">
     <g id="line2d_21">
      <g>
       <use xlink:href="#m3aa6163ebd" x="217.437315" y="261.98145" style="stroke: #000000; stroke-width: 0.6"/>
      </g>
     </g>
     <g id="line2d_22">
      <g>
       <use xlink:href="#mebdef15ba0" x="217.437315" y="36.999" style="stroke: #000000; stroke-width: 0.6"/>
      </g>
     </g>
    </g>
    <g id="xtick_12">
     <g id="line2d_23">
      <g>
       <use xlink:href="#m3aa6163ebd" x="240.156799" y="261.98145" style="stroke: #000000; stroke-width: 0.6"/>
      </g>
     </g>
     <g id="line2d_24">
      <g>
       <use xlink:href="#mebdef15ba0" x="240.156799" y="36.999" style="stroke: #000000; stroke-width: 0.6"/>
      </g>
     </g>
    </g>
    <g id="xtick_13">
     <g id="line2d_25">
      <g>
       <use xlink:href="#m3aa6163ebd" x="256.276529" y="261.98145" style="stroke: #000000; stroke-width: 0.6"/>
      </g>
     </g>
     <g id="line2d_26">
      <g>
       <use xlink:href="#mebdef15ba0" x="256.276529" y="36.999" style="stroke: #000000; stroke-width: 0.6"/>
      </g>
     </g>
    </g>
    <g id="xtick_14">
     <g id="line2d_27">
      <g>
       <use xlink:href="#m3aa6163ebd" x="268.779963" y="261.98145" style="stroke: #000000; stroke-width: 0.6"/>
      </g>
     </g>
     <g id="line2d_28">
      <g>
       <use xlink:href="#mebdef15ba0" x="268.779963" y="36.999" style="stroke: #000000; stroke-width: 0.6"/>
      </g>
     </g>
    </g>
    <g id="xtick_15">
     <g id="line2d_29">
      <g>
       <use xlink:href="#m3aa6163ebd" x="278.996013" y="261.98145" style="stroke: #000000; stroke-width: 0.6"/>
      </g>
     </g>
     <g id="line2d_30">
      <g>
       <use xlink:href="#mebdef15ba0" x="278.996013" y="36.999" style="stroke: #000000; stroke-width: 0.6"/>
      </g>
     </g>
    </g>
    <g id="xtick_16">
     <g id="line2d_31">
      <g>
       <use xlink:href="#m3aa6163ebd" x="287.633559" y="261.98145" style="stroke: #000000; stroke-width: 0.6"/>
      </g>
     </g>
     <g id="line2d_32">
      <g>
       <use xlink:href="#mebdef15ba0" x="287.633559" y="36.999" style="stroke: #000000; stroke-width: 0.6"/>
      </g>
     </g>
    </g>
    <g id="xtick_17">
     <g id="line2d_33">
      <g>
       <use xlink:href="#m3aa6163ebd" x="295.115743" y="261.98145" style="stroke: #000000; stroke-width: 0.6"/>
      </g>
     </g>
     <g id="line2d_34">
      <g>
       <use xlink:href="#mebdef15ba0" x="295.115743" y="36.999" style="stroke: #000000; stroke-width: 0.6"/>
      </g>
     </g>
    </g>
    <g id="xtick_18">
     <g id="line2d_35">
      <g>
       <use xlink:href="#m3aa6163ebd" x="301.715496" y="261.98145" style="stroke: #000000; stroke-width: 0.6"/>
      </g>
     </g>
     <g id="line2d_36">
      <g>
       <use xlink:href="#mebdef15ba0" x="301.715496" y="36.999" style="stroke: #000000; stroke-width: 0.6"/>
      </g>
     </g>
    </g>
    <g id="xtick_19">
     <g id="line2d_37">
      <g>
       <use xlink:href="#m3aa6163ebd" x="346.45839" y="261.98145" style="stroke: #000000; stroke-width: 0.6"/>
      </g>
     </g>
     <g id="line2d_38">
      <g>
       <use xlink:href="#mebdef15ba0" x="346.45839" y="36.999" style="stroke: #000000; stroke-width: 0.6"/>
      </g>
     </g>
    </g>
    <g id="xtick_20">
     <g id="line2d_39">
      <g>
       <use xlink:href="#m3aa6163ebd" x="369.177874" y="261.98145" style="stroke: #000000; stroke-width: 0.6"/>
      </g>
     </g>
     <g id="line2d_40">
      <g>
       <use xlink:href="#mebdef15ba0" x="369.177874" y="36.999" style="stroke: #000000; stroke-width: 0.6"/>
      </g>
     </g>
    </g>
    <g id="xtick_21">
     <g id="line2d_41">
      <g>
       <use xlink:href="#m3aa6163ebd" x="385.297604" y="261.98145" style="stroke: #000000; stroke-width: 0.6"/>
      </g>
     </g>
     <g id="line2d_42">
      <g>
       <use xlink:href="#mebdef15ba0" x="385.297604" y="36.999" style="stroke: #000000; stroke-width: 0.6"/>
      </g>
     </g>
    </g>
    <g id="xtick_22">
     <g id="line2d_43">
      <g>
       <use xlink:href="#m3aa6163ebd" x="397.801038" y="261.98145" style="stroke: #000000; stroke-width: 0.6"/>
      </g>
     </g>
     <g id="line2d_44">
      <g>
       <use xlink:href="#mebdef15ba0" x="397.801038" y="36.999" style="stroke: #000000; stroke-width: 0.6"/>
      </g>
     </g>
    </g>
    <g id="xtick_23">
     <g id="line2d_45">
      <g>
       <use xlink:href="#m3aa6163ebd" x="408.017088" y="261.98145" style="stroke: #000000; stroke-width: 0.6"/>
      </g>
     </g>
     <g id="line2d_46">
      <g>
       <use xlink:href="#mebdef15ba0" x="408.017088" y="36.999" style="stroke: #000000; stroke-width: 0.6"/>
      </g>
     </g>
    </g>
    <g id="text_3">
     <!-- $V_0/t$ -->
     <g transform="translate(231.60998 302.138041) scale(0.2 -0.2)">
      <defs>
       <path id="CMMI12-56" d="M 3962 3640 
C 4179 3984 4378 4136 4704 4162 
C 4768 4168 4819 4168 4819 4282 
C 4819 4308 4806 4346 4749 4346 
C 4634 4346 4358 4346 4243 4346 
C 4058 4346 3866 4346 3686 4346 
C 3635 4346 3571 4346 3571 4226 
C 3571 4168 3629 4162 3654 4162 
C 3891 4143 3917 4029 3917 3952 
C 3917 3857 3827 3710 3821 3704 
L 1811 540 
L 1363 3969 
C 1363 4160 1696 4160 1766 4160 
C 1862 4160 1920 4160 1920 4282 
C 1920 4346 1850 4346 1830 4346 
C 1722 4346 1594 4346 1485 4346 
L 1126 4346 
C 659 4346 467 4346 461 4346 
C 422 4346 346 4346 346 4230 
C 346 4160 390 4160 493 4160 
C 819 4160 838 4102 858 3944 
L 1370 24 
C 1389 -109 1389 -128 1478 -128 
C 1555 -128 1587 -109 1651 -8 
L 3962 3640 
z
" transform="scale(0.015625)"/>
       <path id="CMMI12-3d" d="M 2746 4562 
C 2746 4569 2784 4666 2784 4678 
C 2784 4755 2720 4800 2669 4800 
C 2637 4800 2579 4800 2528 4659 
L 384 -1363 
C 384 -1370 346 -1465 346 -1478 
C 346 -1555 410 -1600 461 -1600 
C 499 -1600 557 -1593 602 -1459 
L 2746 4562 
z
" transform="scale(0.015625)"/>
       <path id="CMMI12-74" d="M 1286 2566 
L 1875 2566 
C 1997 2566 2061 2566 2061 2681 
C 2061 2752 2022 2752 1894 2752 
L 1331 2752 
L 1568 3692 
C 1594 3781 1594 3794 1594 3840 
C 1594 3943 1510 4000 1427 4000 
C 1376 4000 1229 3981 1178 3775 
L 928 2752 
L 326 2752 
C 198 2752 141 2752 141 2630 
C 141 2566 186 2566 307 2566 
L 877 2566 
L 454 881 
C 403 658 384 594 384 511 
C 384 211 595 -64 954 -64 
C 1600 -64 1946 868 1946 912 
C 1946 951 1920 970 1882 970 
C 1869 970 1843 970 1830 944 
C 1824 938 1818 931 1773 829 
C 1638 511 1344 64 973 64 
C 781 64 768 224 768 364 
C 768 370 768 492 787 568 
L 1286 2566 
z
" transform="scale(0.015625)"/>
      </defs>
      <use xlink:href="#CMMI12-56" transform="scale(0.996264)"/>
      <use xlink:href="#CMR17-30" transform="translate(56.869579 -14.943915) scale(0.697382)"/>
      <use xlink:href="#CMMI12-3d" transform="translate(89.350893 0) scale(0.996264)"/>
      <use xlink:href="#CMMI12-74" transform="translate(138.125812 0) scale(0.996264)"/>
     </g>
    </g>
   </g>
   <g id="matplotlib.axis_2">
    <g id="ytick_1">
     <g id="line2d_47">
      <defs>
       <path id="md7d8ddc731" d="M 0 0 
L 6 0 
" style="stroke: #000000; stroke-width: 0.8"/>
      </defs>
      <g>
       <use xlink:href="#md7d8ddc731" x="86.075606" y="229.098256" style="stroke: #000000; stroke-width: 0.8"/>
      </g>
     </g>
     <g id="line2d_48">
      <defs>
       <path id="m6ae3e9d4ee" d="M 0 0 
L -6 0 
" style="stroke: #000000; stroke-width: 0.8"/>
      </defs>
      <g>
       <use xlink:href="#m6ae3e9d4ee" x="412.645106" y="229.098256" style="stroke: #000000; stroke-width: 0.8"/>
      </g>
     </g>
     <g id="text_4">
      <!-- $-10^{-1}$ -->
      <g transform="translate(31.12528 236.016754) scale(0.2 -0.2)">
       <use xlink:href="#CMSY10-0" transform="scale(0.996264)"/>
       <use xlink:href="#CMR17-31" transform="translate(77.487468 0) scale(0.996264)"/>
       <use xlink:href="#CMR17-30" transform="translate(123.177945 0) scale(0.996264)"/>
       <use xlink:href="#CMSY10-0" transform="translate(168.868422 36.153639) scale(0.697382)"/>
       <use xlink:href="#CMR17-31" transform="translate(223.109415 36.153639) scale(0.697382)"/>
      </g>
     </g>
    </g>
    <g id="ytick_2">
     <g id="line2d_49">
      <g>
       <use xlink:href="#md7d8ddc731" x="86.075606" y="187.116934" style="stroke: #000000; stroke-width: 0.8"/>
      </g>
     </g>
     <g id="line2d_50">
      <g>
       <use xlink:href="#m6ae3e9d4ee" x="412.645106" y="187.116934" style="stroke: #000000; stroke-width: 0.8"/>
      </g>
     </g>
     <g id="text_5">
      <!-- $-10^{-2}$ -->
      <g transform="translate(31.12528 194.035433) scale(0.2 -0.2)">
       <use xlink:href="#CMSY10-0" transform="scale(0.996264)"/>
       <use xlink:href="#CMR17-31" transform="translate(77.487468 0) scale(0.996264)"/>
       <use xlink:href="#CMR17-30" transform="translate(123.177945 0) scale(0.996264)"/>
       <use xlink:href="#CMSY10-0" transform="translate(168.868422 36.153639) scale(0.697382)"/>
       <use xlink:href="#CMR17-32" transform="translate(223.109415 36.153639) scale(0.697382)"/>
      </g>
     </g>
    </g>
    <g id="ytick_3">
     <g id="line2d_51">
      <g>
       <use xlink:href="#md7d8ddc731" x="86.075606" y="145.135612" style="stroke: #000000; stroke-width: 0.8"/>
      </g>
     </g>
     <g id="line2d_52">
      <g>
       <use xlink:href="#m6ae3e9d4ee" x="412.645106" y="145.135612" style="stroke: #000000; stroke-width: 0.8"/>
      </g>
     </g>
     <g id="text_6">
      <!-- $-10^{-3}$ -->
      <g transform="translate(31.12528 152.054111) scale(0.2 -0.2)">
       <defs>
        <path id="CMR17-33" d="M 1414 2157 
C 1984 2157 2234 1662 2234 1090 
C 2234 320 1824 25 1453 25 
C 1114 25 563 194 390 693 
C 422 680 454 680 486 680 
C 640 680 755 782 755 948 
C 755 1133 614 1216 486 1216 
C 378 1216 211 1165 211 926 
C 211 335 787 -128 1466 -128 
C 2176 -128 2720 430 2720 1085 
C 2720 1707 2208 2157 1600 2227 
C 2086 2328 2554 2756 2554 3329 
C 2554 3820 2048 4179 1472 4179 
C 890 4179 378 3829 378 3329 
C 378 3110 544 3072 627 3072 
C 762 3072 877 3155 877 3321 
C 877 3486 762 3569 627 3569 
C 602 3569 570 3569 544 3557 
C 730 3959 1235 4032 1459 4032 
C 1683 4032 2106 3925 2106 3320 
C 2106 3143 2080 2828 1862 2550 
C 1670 2304 1453 2304 1242 2284 
C 1210 2284 1062 2269 1037 2269 
C 992 2263 966 2257 966 2208 
C 966 2163 973 2157 1101 2157 
L 1414 2157 
z
" transform="scale(0.015625)"/>
       </defs>
       <use xlink:href="#CMSY10-0" transform="scale(0.996264)"/>
       <use xlink:href="#CMR17-31" transform="translate(77.487468 0) scale(0.996264)"/>
       <use xlink:href="#CMR17-30" transform="translate(123.177945 0) scale(0.996264)"/>
       <use xlink:href="#CMSY10-0" transform="translate(168.868422 36.153639) scale(0.697382)"/>
       <use xlink:href="#CMR17-33" transform="translate(223.109415 36.153639) scale(0.697382)"/>
      </g>
     </g>
    </g>
    <g id="ytick_4">
     <g id="line2d_53">
      <g>
       <use xlink:href="#md7d8ddc731" x="86.075606" y="103.15429" style="stroke: #000000; stroke-width: 0.8"/>
      </g>
     </g>
     <g id="line2d_54">
      <g>
       <use xlink:href="#m6ae3e9d4ee" x="412.645106" y="103.15429" style="stroke: #000000; stroke-width: 0.8"/>
      </g>
     </g>
     <g id="text_7">
      <!-- $-10^{-4}$ -->
      <g transform="translate(31.12528 110.072789) scale(0.2 -0.2)">
       <defs>
        <path id="CMR17-34" d="M 2150 4122 
C 2150 4256 2144 4256 2029 4256 
L 128 1254 
L 128 1088 
L 1779 1088 
L 1779 457 
C 1779 224 1766 160 1318 160 
L 1197 160 
L 1197 0 
C 1402 0 1747 0 1965 0 
C 2182 0 2528 0 2733 0 
L 2733 160 
L 2611 160 
C 2163 160 2150 224 2150 457 
L 2150 1088 
L 2803 1088 
L 2803 1254 
L 2150 1254 
L 2150 4122 
z
M 1798 3703 
L 1798 1254 
L 256 1254 
L 1798 3703 
z
" transform="scale(0.015625)"/>
       </defs>
       <use xlink:href="#CMSY10-0" transform="scale(0.996264)"/>
       <use xlink:href="#CMR17-31" transform="translate(77.487468 0) scale(0.996264)"/>
       <use xlink:href="#CMR17-30" transform="translate(123.177945 0) scale(0.996264)"/>
       <use xlink:href="#CMSY10-0" transform="translate(168.868422 36.153639) scale(0.697382)"/>
       <use xlink:href="#CMR17-34" transform="translate(223.109415 36.153639) scale(0.697382)"/>
      </g>
     </g>
    </g>
    <g id="ytick_5">
     <g id="line2d_55">
      <g>
       <use xlink:href="#md7d8ddc731" x="86.075606" y="61.172969" style="stroke: #000000; stroke-width: 0.8"/>
      </g>
     </g>
     <g id="line2d_56">
      <g>
       <use xlink:href="#m6ae3e9d4ee" x="412.645106" y="61.172969" style="stroke: #000000; stroke-width: 0.8"/>
      </g>
     </g>
     <g id="text_8">
      <!-- $-10^{-5}$ -->
      <g transform="translate(31.12528 68.091467) scale(0.2 -0.2)">
       <defs>
        <path id="CMR17-35" d="M 730 3692 
C 794 3666 1056 3584 1325 3584 
C 1920 3584 2246 3911 2432 4100 
C 2432 4157 2432 4192 2394 4192 
C 2387 4192 2374 4192 2323 4163 
C 2099 4058 1837 3973 1517 3973 
C 1325 3973 1037 3999 723 4139 
C 653 4171 640 4171 634 4171 
C 602 4171 595 4164 595 4037 
L 595 2203 
C 595 2089 595 2057 659 2057 
C 691 2057 704 2070 736 2114 
C 941 2401 1222 2522 1542 2522 
C 1766 2522 2246 2382 2246 1289 
C 2246 1085 2246 715 2054 421 
C 1894 159 1645 25 1370 25 
C 947 25 518 320 403 814 
C 429 807 480 795 506 795 
C 589 795 749 840 749 1038 
C 749 1210 627 1280 506 1280 
C 358 1280 262 1190 262 1011 
C 262 454 704 -128 1382 -128 
C 2042 -128 2669 440 2669 1264 
C 2669 2030 2170 2624 1549 2624 
C 1222 2624 947 2503 730 2274 
L 730 3692 
z
" transform="scale(0.015625)"/>
       </defs>
       <use xlink:href="#CMSY10-0" transform="scale(0.996264)"/>
       <use xlink:href="#CMR17-31" transform="translate(77.487468 0) scale(0.996264)"/>
       <use xlink:href="#CMR17-30" transform="translate(123.177945 0) scale(0.996264)"/>
       <use xlink:href="#CMSY10-0" transform="translate(168.868422 36.153639) scale(0.697382)"/>
       <use xlink:href="#CMR17-35" transform="translate(223.109415 36.153639) scale(0.697382)"/>
      </g>
     </g>
    </g>
    <g id="ytick_6">
     <g id="line2d_57">
      <defs>
       <path id="m83e34b2a8e" d="M 0 0 
L 3 0 
" style="stroke: #000000; stroke-width: 0.6"/>
      </defs>
      <g>
       <use xlink:href="#m83e34b2a8e" x="86.075606" y="39.221828" style="stroke: #000000; stroke-width: 0.6"/>
      </g>
     </g>
     <g id="line2d_58">
      <defs>
       <path id="me65c55d742" d="M 0 0 
L -3 0 
" style="stroke: #000000; stroke-width: 0.6"/>
      </defs>
      <g>
       <use xlink:href="#me65c55d742" x="412.645106" y="39.221828" style="stroke: #000000; stroke-width: 0.6"/>
      </g>
     </g>
    </g>
    <g id="ytick_7">
     <g id="line2d_59">
      <g>
       <use xlink:href="#m83e34b2a8e" x="86.075606" y="44.466921" style="stroke: #000000; stroke-width: 0.6"/>
      </g>
     </g>
     <g id="line2d_60">
      <g>
       <use xlink:href="#me65c55d742" x="412.645106" y="44.466921" style="stroke: #000000; stroke-width: 0.6"/>
      </g>
     </g>
    </g>
    <g id="ytick_8">
     <g id="line2d_61">
      <g>
       <use xlink:href="#m83e34b2a8e" x="86.075606" y="48.535331" style="stroke: #000000; stroke-width: 0.6"/>
      </g>
     </g>
     <g id="line2d_62">
      <g>
       <use xlink:href="#me65c55d742" x="412.645106" y="48.535331" style="stroke: #000000; stroke-width: 0.6"/>
      </g>
     </g>
    </g>
    <g id="ytick_9">
     <g id="line2d_63">
      <g>
       <use xlink:href="#m83e34b2a8e" x="86.075606" y="51.859465" style="stroke: #000000; stroke-width: 0.6"/>
      </g>
     </g>
     <g id="line2d_64">
      <g>
       <use xlink:href="#me65c55d742" x="412.645106" y="51.859465" style="stroke: #000000; stroke-width: 0.6"/>
      </g>
     </g>
    </g>
    <g id="ytick_10">
     <g id="line2d_65">
      <g>
       <use xlink:href="#m83e34b2a8e" x="86.075606" y="54.66998" style="stroke: #000000; stroke-width: 0.6"/>
      </g>
     </g>
     <g id="line2d_66">
      <g>
       <use xlink:href="#me65c55d742" x="412.645106" y="54.66998" style="stroke: #000000; stroke-width: 0.6"/>
      </g>
     </g>
    </g>
    <g id="ytick_11">
     <g id="line2d_67">
      <g>
       <use xlink:href="#m83e34b2a8e" x="86.075606" y="57.104558" style="stroke: #000000; stroke-width: 0.6"/>
      </g>
     </g>
     <g id="line2d_68">
      <g>
       <use xlink:href="#me65c55d742" x="412.645106" y="57.104558" style="stroke: #000000; stroke-width: 0.6"/>
      </g>
     </g>
    </g>
    <g id="ytick_12">
     <g id="line2d_69">
      <g>
       <use xlink:href="#m83e34b2a8e" x="86.075606" y="59.252009" style="stroke: #000000; stroke-width: 0.6"/>
      </g>
     </g>
     <g id="line2d_70">
      <g>
       <use xlink:href="#me65c55d742" x="412.645106" y="59.252009" style="stroke: #000000; stroke-width: 0.6"/>
      </g>
     </g>
    </g>
    <g id="ytick_13">
     <g id="line2d_71">
      <g>
       <use xlink:href="#m83e34b2a8e" x="86.075606" y="73.810606" style="stroke: #000000; stroke-width: 0.6"/>
      </g>
     </g>
     <g id="line2d_72">
      <g>
       <use xlink:href="#me65c55d742" x="412.645106" y="73.810606" style="stroke: #000000; stroke-width: 0.6"/>
      </g>
     </g>
    </g>
    <g id="ytick_14">
     <g id="line2d_73">
      <g>
       <use xlink:href="#m83e34b2a8e" x="86.075606" y="81.20315" style="stroke: #000000; stroke-width: 0.6"/>
      </g>
     </g>
     <g id="line2d_74">
      <g>
       <use xlink:href="#me65c55d742" x="412.645106" y="81.20315" style="stroke: #000000; stroke-width: 0.6"/>
      </g>
     </g>
    </g>
    <g id="ytick_15">
     <g id="line2d_75">
      <g>
       <use xlink:href="#m83e34b2a8e" x="86.075606" y="86.448243" style="stroke: #000000; stroke-width: 0.6"/>
      </g>
     </g>
     <g id="line2d_76">
      <g>
       <use xlink:href="#me65c55d742" x="412.645106" y="86.448243" style="stroke: #000000; stroke-width: 0.6"/>
      </g>
     </g>
    </g>
    <g id="ytick_16">
     <g id="line2d_77">
      <g>
       <use xlink:href="#m83e34b2a8e" x="86.075606" y="90.516653" style="stroke: #000000; stroke-width: 0.6"/>
      </g>
     </g>
     <g id="line2d_78">
      <g>
       <use xlink:href="#me65c55d742" x="412.645106" y="90.516653" style="stroke: #000000; stroke-width: 0.6"/>
      </g>
     </g>
    </g>
    <g id="ytick_17">
     <g id="line2d_79">
      <g>
       <use xlink:href="#m83e34b2a8e" x="86.075606" y="93.840787" style="stroke: #000000; stroke-width: 0.6"/>
      </g>
     </g>
     <g id="line2d_80">
      <g>
       <use xlink:href="#me65c55d742" x="412.645106" y="93.840787" style="stroke: #000000; stroke-width: 0.6"/>
      </g>
     </g>
    </g>
    <g id="ytick_18">
     <g id="line2d_81">
      <g>
       <use xlink:href="#m83e34b2a8e" x="86.075606" y="96.651301" style="stroke: #000000; stroke-width: 0.6"/>
      </g>
     </g>
     <g id="line2d_82">
      <g>
       <use xlink:href="#me65c55d742" x="412.645106" y="96.651301" style="stroke: #000000; stroke-width: 0.6"/>
      </g>
     </g>
    </g>
    <g id="ytick_19">
     <g id="line2d_83">
      <g>
       <use xlink:href="#m83e34b2a8e" x="86.075606" y="99.08588" style="stroke: #000000; stroke-width: 0.6"/>
      </g>
     </g>
     <g id="line2d_84">
      <g>
       <use xlink:href="#me65c55d742" x="412.645106" y="99.08588" style="stroke: #000000; stroke-width: 0.6"/>
      </g>
     </g>
    </g>
    <g id="ytick_20">
     <g id="line2d_85">
      <g>
       <use xlink:href="#m83e34b2a8e" x="86.075606" y="101.233331" style="stroke: #000000; stroke-width: 0.6"/>
      </g>
     </g>
     <g id="line2d_86">
      <g>
       <use xlink:href="#me65c55d742" x="412.645106" y="101.233331" style="stroke: #000000; stroke-width: 0.6"/>
      </g>
     </g>
    </g>
    <g id="ytick_21">
     <g id="line2d_87">
      <g>
       <use xlink:href="#m83e34b2a8e" x="86.075606" y="115.791928" style="stroke: #000000; stroke-width: 0.6"/>
      </g>
     </g>
     <g id="line2d_88">
      <g>
       <use xlink:href="#me65c55d742" x="412.645106" y="115.791928" style="stroke: #000000; stroke-width: 0.6"/>
      </g>
     </g>
    </g>
    <g id="ytick_22">
     <g id="line2d_89">
      <g>
       <use xlink:href="#m83e34b2a8e" x="86.075606" y="123.184471" style="stroke: #000000; stroke-width: 0.6"/>
      </g>
     </g>
     <g id="line2d_90">
      <g>
       <use xlink:href="#me65c55d742" x="412.645106" y="123.184471" style="stroke: #000000; stroke-width: 0.6"/>
      </g>
     </g>
    </g>
    <g id="ytick_23">
     <g id="line2d_91">
      <g>
       <use xlink:href="#m83e34b2a8e" x="86.075606" y="128.429565" style="stroke: #000000; stroke-width: 0.6"/>
      </g>
     </g>
     <g id="line2d_92">
      <g>
       <use xlink:href="#me65c55d742" x="412.645106" y="128.429565" style="stroke: #000000; stroke-width: 0.6"/>
      </g>
     </g>
    </g>
    <g id="ytick_24">
     <g id="line2d_93">
      <g>
       <use xlink:href="#m83e34b2a8e" x="86.075606" y="132.497975" style="stroke: #000000; stroke-width: 0.6"/>
      </g>
     </g>
     <g id="line2d_94">
      <g>
       <use xlink:href="#me65c55d742" x="412.645106" y="132.497975" style="stroke: #000000; stroke-width: 0.6"/>
      </g>
     </g>
    </g>
    <g id="ytick_25">
     <g id="line2d_95">
      <g>
       <use xlink:href="#m83e34b2a8e" x="86.075606" y="135.822109" style="stroke: #000000; stroke-width: 0.6"/>
      </g>
     </g>
     <g id="line2d_96">
      <g>
       <use xlink:href="#me65c55d742" x="412.645106" y="135.822109" style="stroke: #000000; stroke-width: 0.6"/>
      </g>
     </g>
    </g>
    <g id="ytick_26">
     <g id="line2d_97">
      <g>
       <use xlink:href="#m83e34b2a8e" x="86.075606" y="138.632623" style="stroke: #000000; stroke-width: 0.6"/>
      </g>
     </g>
     <g id="line2d_98">
      <g>
       <use xlink:href="#me65c55d742" x="412.645106" y="138.632623" style="stroke: #000000; stroke-width: 0.6"/>
      </g>
     </g>
    </g>
    <g id="ytick_27">
     <g id="line2d_99">
      <g>
       <use xlink:href="#m83e34b2a8e" x="86.075606" y="141.067202" style="stroke: #000000; stroke-width: 0.6"/>
      </g>
     </g>
     <g id="line2d_100">
      <g>
       <use xlink:href="#me65c55d742" x="412.645106" y="141.067202" style="stroke: #000000; stroke-width: 0.6"/>
      </g>
     </g>
    </g>
    <g id="ytick_28">
     <g id="line2d_101">
      <g>
       <use xlink:href="#m83e34b2a8e" x="86.075606" y="143.214652" style="stroke: #000000; stroke-width: 0.6"/>
      </g>
     </g>
     <g id="line2d_102">
      <g>
       <use xlink:href="#me65c55d742" x="412.645106" y="143.214652" style="stroke: #000000; stroke-width: 0.6"/>
      </g>
     </g>
    </g>
    <g id="ytick_29">
     <g id="line2d_103">
      <g>
       <use xlink:href="#m83e34b2a8e" x="86.075606" y="157.773249" style="stroke: #000000; stroke-width: 0.6"/>
      </g>
     </g>
     <g id="line2d_104">
      <g>
       <use xlink:href="#me65c55d742" x="412.645106" y="157.773249" style="stroke: #000000; stroke-width: 0.6"/>
      </g>
     </g>
    </g>
    <g id="ytick_30">
     <g id="line2d_105">
      <g>
       <use xlink:href="#m83e34b2a8e" x="86.075606" y="165.165793" style="stroke: #000000; stroke-width: 0.6"/>
      </g>
     </g>
     <g id="line2d_106">
      <g>
       <use xlink:href="#me65c55d742" x="412.645106" y="165.165793" style="stroke: #000000; stroke-width: 0.6"/>
      </g>
     </g>
    </g>
    <g id="ytick_31">
     <g id="line2d_107">
      <g>
       <use xlink:href="#m83e34b2a8e" x="86.075606" y="170.410887" style="stroke: #000000; stroke-width: 0.6"/>
      </g>
     </g>
     <g id="line2d_108">
      <g>
       <use xlink:href="#me65c55d742" x="412.645106" y="170.410887" style="stroke: #000000; stroke-width: 0.6"/>
      </g>
     </g>
    </g>
    <g id="ytick_32">
     <g id="line2d_109">
      <g>
       <use xlink:href="#m83e34b2a8e" x="86.075606" y="174.479297" style="stroke: #000000; stroke-width: 0.6"/>
      </g>
     </g>
     <g id="line2d_110">
      <g>
       <use xlink:href="#me65c55d742" x="412.645106" y="174.479297" style="stroke: #000000; stroke-width: 0.6"/>
      </g>
     </g>
    </g>
    <g id="ytick_33">
     <g id="line2d_111">
      <g>
       <use xlink:href="#m83e34b2a8e" x="86.075606" y="177.80343" style="stroke: #000000; stroke-width: 0.6"/>
      </g>
     </g>
     <g id="line2d_112">
      <g>
       <use xlink:href="#me65c55d742" x="412.645106" y="177.80343" style="stroke: #000000; stroke-width: 0.6"/>
      </g>
     </g>
    </g>
    <g id="ytick_34">
     <g id="line2d_113">
      <g>
       <use xlink:href="#m83e34b2a8e" x="86.075606" y="180.613945" style="stroke: #000000; stroke-width: 0.6"/>
      </g>
     </g>
     <g id="line2d_114">
      <g>
       <use xlink:href="#me65c55d742" x="412.645106" y="180.613945" style="stroke: #000000; stroke-width: 0.6"/>
      </g>
     </g>
    </g>
    <g id="ytick_35">
     <g id="line2d_115">
      <g>
       <use xlink:href="#m83e34b2a8e" x="86.075606" y="183.048524" style="stroke: #000000; stroke-width: 0.6"/>
      </g>
     </g>
     <g id="line2d_116">
      <g>
       <use xlink:href="#me65c55d742" x="412.645106" y="183.048524" style="stroke: #000000; stroke-width: 0.6"/>
      </g>
     </g>
    </g>
    <g id="ytick_36">
     <g id="line2d_117">
      <g>
       <use xlink:href="#m83e34b2a8e" x="86.075606" y="185.195974" style="stroke: #000000; stroke-width: 0.6"/>
      </g>
     </g>
     <g id="line2d_118">
      <g>
       <use xlink:href="#me65c55d742" x="412.645106" y="185.195974" style="stroke: #000000; stroke-width: 0.6"/>
      </g>
     </g>
    </g>
    <g id="ytick_37">
     <g id="line2d_119">
      <g>
       <use xlink:href="#m83e34b2a8e" x="86.075606" y="199.754571" style="stroke: #000000; stroke-width: 0.6"/>
      </g>
     </g>
     <g id="line2d_120">
      <g>
       <use xlink:href="#me65c55d742" x="412.645106" y="199.754571" style="stroke: #000000; stroke-width: 0.6"/>
      </g>
     </g>
    </g>
    <g id="ytick_38">
     <g id="line2d_121">
      <g>
       <use xlink:href="#m83e34b2a8e" x="86.075606" y="207.147115" style="stroke: #000000; stroke-width: 0.6"/>
      </g>
     </g>
     <g id="line2d_122">
      <g>
       <use xlink:href="#me65c55d742" x="412.645106" y="207.147115" style="stroke: #000000; stroke-width: 0.6"/>
      </g>
     </g>
    </g>
    <g id="ytick_39">
     <g id="line2d_123">
      <g>
       <use xlink:href="#m83e34b2a8e" x="86.075606" y="212.392208" style="stroke: #000000; stroke-width: 0.6"/>
      </g>
     </g>
     <g id="line2d_124">
      <g>
       <use xlink:href="#me65c55d742" x="412.645106" y="212.392208" style="stroke: #000000; stroke-width: 0.6"/>
      </g>
     </g>
    </g>
    <g id="ytick_40">
     <g id="line2d_125">
      <g>
       <use xlink:href="#m83e34b2a8e" x="86.075606" y="216.460619" style="stroke: #000000; stroke-width: 0.6"/>
      </g>
     </g>
     <g id="line2d_126">
      <g>
       <use xlink:href="#me65c55d742" x="412.645106" y="216.460619" style="stroke: #000000; stroke-width: 0.6"/>
      </g>
     </g>
    </g>
    <g id="ytick_41">
     <g id="line2d_127">
      <g>
       <use xlink:href="#m83e34b2a8e" x="86.075606" y="219.784752" style="stroke: #000000; stroke-width: 0.6"/>
      </g>
     </g>
     <g id="line2d_128">
      <g>
       <use xlink:href="#me65c55d742" x="412.645106" y="219.784752" style="stroke: #000000; stroke-width: 0.6"/>
      </g>
     </g>
    </g>
    <g id="ytick_42">
     <g id="line2d_129">
      <g>
       <use xlink:href="#m83e34b2a8e" x="86.075606" y="222.595267" style="stroke: #000000; stroke-width: 0.6"/>
      </g>
     </g>
     <g id="line2d_130">
      <g>
       <use xlink:href="#me65c55d742" x="412.645106" y="222.595267" style="stroke: #000000; stroke-width: 0.6"/>
      </g>
     </g>
    </g>
    <g id="ytick_43">
     <g id="line2d_131">
      <g>
       <use xlink:href="#m83e34b2a8e" x="86.075606" y="225.029846" style="stroke: #000000; stroke-width: 0.6"/>
      </g>
     </g>
     <g id="line2d_132">
      <g>
       <use xlink:href="#me65c55d742" x="412.645106" y="225.029846" style="stroke: #000000; stroke-width: 0.6"/>
      </g>
     </g>
    </g>
    <g id="ytick_44">
     <g id="line2d_133">
      <g>
       <use xlink:href="#m83e34b2a8e" x="86.075606" y="227.177296" style="stroke: #000000; stroke-width: 0.6"/>
      </g>
     </g>
     <g id="line2d_134">
      <g>
       <use xlink:href="#me65c55d742" x="412.645106" y="227.177296" style="stroke: #000000; stroke-width: 0.6"/>
      </g>
     </g>
    </g>
    <g id="ytick_45">
     <g id="line2d_135">
      <g>
       <use xlink:href="#m83e34b2a8e" x="86.075606" y="241.735893" style="stroke: #000000; stroke-width: 0.6"/>
      </g>
     </g>
     <g id="line2d_136">
      <g>
       <use xlink:href="#me65c55d742" x="412.645106" y="241.735893" style="stroke: #000000; stroke-width: 0.6"/>
      </g>
     </g>
    </g>
    <g id="ytick_46">
     <g id="line2d_137">
      <g>
       <use xlink:href="#m83e34b2a8e" x="86.075606" y="249.128437" style="stroke: #000000; stroke-width: 0.6"/>
      </g>
     </g>
     <g id="line2d_138">
      <g>
       <use xlink:href="#me65c55d742" x="412.645106" y="249.128437" style="stroke: #000000; stroke-width: 0.6"/>
      </g>
     </g>
    </g>
    <g id="ytick_47">
     <g id="line2d_139">
      <g>
       <use xlink:href="#m83e34b2a8e" x="86.075606" y="254.37353" style="stroke: #000000; stroke-width: 0.6"/>
      </g>
     </g>
     <g id="line2d_140">
      <g>
       <use xlink:href="#me65c55d742" x="412.645106" y="254.37353" style="stroke: #000000; stroke-width: 0.6"/>
      </g>
     </g>
    </g>
    <g id="ytick_48">
     <g id="line2d_141">
      <g>
       <use xlink:href="#m83e34b2a8e" x="86.075606" y="258.441941" style="stroke: #000000; stroke-width: 0.6"/>
      </g>
     </g>
     <g id="line2d_142">
      <g>
       <use xlink:href="#me65c55d742" x="412.645106" y="258.441941" style="stroke: #000000; stroke-width: 0.6"/>
      </g>
     </g>
    </g>
    <g id="ytick_49">
     <g id="line2d_143">
      <g>
       <use xlink:href="#m83e34b2a8e" x="86.075606" y="261.766074" style="stroke: #000000; stroke-width: 0.6"/>
      </g>
     </g>
     <g id="line2d_144">
      <g>
       <use xlink:href="#me65c55d742" x="412.645106" y="261.766074" style="stroke: #000000; stroke-width: 0.6"/>
      </g>
     </g>
    </g>
    <g id="text_9">
     <!-- $(E+2t)/t$ -->
     <g transform="translate(22.14396 192.44261) rotate(-90) scale(0.2 -0.2)">
      <defs>
       <path id="CMR17-28" d="M 1958 -1561 
C 1958 -1555 1958 -1542 1939 -1523 
C 1645 -1224 858 -407 858 1581 
C 858 3569 1632 4379 1946 4697 
C 1946 4704 1958 4717 1958 4736 
C 1958 4755 1939 4768 1914 4768 
C 1843 4768 1299 4296 986 3594 
C 666 2887 576 2199 576 1588 
C 576 1128 621 351 1005 -471 
C 1312 -1135 1837 -1600 1914 -1600 
C 1946 -1600 1958 -1587 1958 -1561 
z
" transform="scale(0.015625)"/>
       <path id="CMMI12-45" d="M 4448 1489 
C 4454 1508 4474 1554 4474 1579 
C 4474 1611 4448 1643 4410 1643 
C 4384 1643 4371 1637 4352 1617 
C 4339 1611 4339 1598 4282 1469 
C 3904 570 3629 185 2605 185 
L 1670 185 
C 1581 185 1568 185 1530 192 
C 1459 198 1453 211 1453 262 
C 1453 307 1466 345 1478 403 
L 1920 2176 
L 2554 2176 
C 3053 2176 3091 2066 3091 1874 
C 3091 1810 3091 1752 3046 1560 
C 3034 1534 3027 1508 3027 1489 
C 3027 1444 3059 1425 3098 1425 
C 3155 1425 3162 1469 3187 1559 
L 3552 3042 
C 3552 3073 3526 3105 3488 3105 
C 3430 3105 3424 3080 3398 2990 
C 3270 2501 3142 2361 2573 2361 
L 1965 2361 
L 2362 3930 
C 2419 4154 2432 4154 2694 4154 
L 3610 4154 
C 4397 4154 4557 3943 4557 3458 
C 4557 3451 4557 3273 4531 3062 
C 4525 3036 4518 2998 4518 2985 
C 4518 2934 4550 2915 4589 2915 
C 4634 2915 4659 2941 4672 3055 
L 4806 4174 
C 4806 4195 4819 4263 4819 4277 
C 4819 4352 4762 4352 4646 4352 
L 1523 4352 
C 1402 4352 1338 4352 1338 4229 
C 1338 4154 1382 4154 1491 4154 
C 1888 4154 1888 4114 1888 4052 
C 1888 4020 1882 3994 1862 3924 
L 998 473 
C 941 249 928 185 480 185 
C 358 185 294 185 294 70 
C 294 0 333 0 461 0 
L 3674 0 
C 3814 0 3821 6 3866 110 
L 4448 1489 
z
" transform="scale(0.015625)"/>
       <path id="CMR17-2b" d="M 2413 1472 
L 4109 1472 
C 4198 1472 4307 1472 4307 1580 
C 4307 1695 4205 1695 4109 1695 
L 2413 1695 
L 2413 3386 
C 2413 3475 2413 3584 2304 3584 
C 2189 3584 2189 3482 2189 3386 
L 2189 1695 
L 493 1695 
C 403 1695 294 1695 294 1587 
C 294 1472 397 1472 493 1472 
L 2189 1472 
L 2189 -218 
C 2189 -307 2189 -416 2298 -416 
C 2413 -416 2413 -314 2413 -218 
L 2413 1472 
z
" transform="scale(0.015625)"/>
       <path id="CMR17-29" d="M 1683 1581 
C 1683 2040 1638 2817 1254 3639 
C 947 4303 422 4768 346 4768 
C 326 4768 301 4761 301 4729 
C 301 4717 307 4710 314 4697 
C 621 4378 1402 3568 1402 1584 
C 1402 -407 627 -1217 314 -1537 
C 307 -1549 301 -1556 301 -1568 
C 301 -1600 326 -1600 346 -1600 
C 416 -1600 960 -1128 1274 -426 
C 1594 281 1683 969 1683 1581 
z
" transform="scale(0.015625)"/>
      </defs>
      <use xlink:href="#CMR17-28" transform="scale(0.996264)"/>
      <use xlink:href="#CMMI12-45" transform="translate(35.280768 0) scale(0.996264)"/>
      <use xlink:href="#CMR17-2b" transform="translate(135.471611 0) scale(0.996264)"/>
      <use xlink:href="#CMR17-32" transform="translate(229.325606 0) scale(0.996264)"/>
      <use xlink:href="#CMMI12-74" transform="translate(275.016083 0) scale(0.996264)"/>
      <use xlink:href="#CMR17-29" transform="translate(310.242414 0) scale(0.996264)"/>
      <use xlink:href="#CMMI12-3d" transform="translate(345.523182 0) scale(0.996264)"/>
      <use xlink:href="#CMMI12-74" transform="translate(394.2981 0) scale(0.996264)"/>
     </g>
    </g>
   </g>
   <g id="line2d_145">
    <path d="M 100.919674 58.511741 
L 139.758888 84.190069 
L 162.478372 99.116062 
L 178.598102 109.672414 
L 191.101536 117.84987 
L 201.317585 124.535493 
L 209.955132 130.185357 
L 217.437315 135.073977 
L 224.037069 139.385234 
L 229.940749 143.241107 
L 235.281278 146.726406 
L 240.156799 149.908099 
L 244.641843 152.834846 
L 248.794346 155.544477 
L 252.660233 158.066982 
L 256.276529 160.42654 
L 259.673517 162.642929 
L 262.876282 164.732531 
L 265.905839 166.70907 
L 268.779963 168.584155 
L 291.499447 183.40311 
L 307.619177 193.918677 
L 320.122611 202.079691 
L 330.33866 208.754362 
L 338.976207 214.405142 
L 346.45839 219.308235 
L 353.058144 223.641872 
L 358.961824 227.527823 
L 364.302353 231.053144 
L 369.177874 234.282454 
L 373.662918 237.26498 
L 377.815421 240.039605 
L 381.681308 242.637623 
L 385.297604 245.085234 
L 388.694592 247.405383 
L 391.897357 249.619956 
L 394.926914 251.754975 
" clip-path="url(#p2f7702af41)" style="fill: none; stroke: #1f77b4; stroke-width: 1.5; stroke-linecap: square"/>
   </g>
   <g id="line2d_146">
    <path d="M 100.919674 59.423144 
L 139.758888 84.697452 
L 162.478372 99.480932 
L 178.598102 109.968872 
L 191.101536 118.102812 
L 201.317585 124.747569 
L 209.955132 130.364467 
L 217.437315 135.228877 
L 224.037069 139.518425 
L 229.940749 143.354394 
L 235.281278 146.823294 
L 240.156799 149.989004 
L 244.641843 152.900038 
L 248.794346 155.594109 
L 252.660233 158.101114 
L 256.276529 160.445158 
L 259.673517 162.645961 
L 262.876282 164.719859 
L 265.905839 166.680536 
L 268.779963 168.539574 
L 291.499447 183.186573 
L 307.619177 193.50049 
L 320.122611 201.430644 
L 330.33866 207.847908 
L 338.976207 213.218406 
L 346.45839 217.821382 
L 353.058144 221.837632 
L 358.961824 225.391063 
L 364.302353 228.570367 
L 369.177874 231.441244 
L 373.662918 234.053736 
L 377.815421 236.446834 
L 381.681308 238.651511 
L 385.297604 240.692772 
L 388.694592 242.591089 
L 391.897357 244.363427 
L 394.926914 246.023997 
" clip-path="url(#p2f7702af41)" style="fill: none; stroke-dasharray: 5.55,2.4; stroke-dashoffset: 0; stroke: #1f77b4; stroke-width: 1.5"/>
   </g>
   <g id="line2d_147">
    <path d="M 100.919674 47.225475 
L 139.758888 72.518304 
L 162.478372 87.317667 
L 178.598102 97.807883 
L 191.101536 105.947453 
L 201.317585 112.595711 
L 209.955132 118.218265 
L 217.437315 123.087409 
L 224.037069 127.383164 
L 229.940749 131.225066 
L 235.281278 134.700482 
L 240.156799 137.873287 
L 244.641843 140.79248 
L 248.794346 143.494762 
L 252.660233 146.010524 
L 256.276529 148.363857 
L 259.673517 150.57447 
L 262.876282 152.658977 
L 265.905839 154.630473 
L 268.779963 156.500817 
L 291.499447 171.285549 
L 307.619177 181.775099 
L 320.122611 189.91103 
L 330.33866 196.558169 
L 338.976207 202.17784 
L 346.45839 207.045399 
L 353.058144 211.338493 
L 358.961824 215.178368 
L 364.302353 218.651534 
L 369.177874 221.821864 
L 373.662918 224.737841 
L 377.815421 227.43717 
L 381.681308 229.949733 
L 385.297604 232.299624 
L 388.694592 234.506533 
L 391.897357 236.586786 
L 394.926914 238.554049 
L 397.801038 240.419888 
" clip-path="url(#p2f7702af41)" style="fill: none; stroke: #ff7f0e; stroke-width: 1.5; stroke-linecap: square"/>
   </g>
   <g id="line2d_148">
    <path d="M 100.919674 47.263703 
L 139.758888 72.53887 
L 162.478372 87.323778 
L 178.598102 97.813714 
L 191.101536 105.950212 
L 201.317585 112.598085 
L 209.955132 118.218648 
L 217.437315 123.087268 
L 224.037069 127.38156 
L 229.940749 131.222799 
L 235.281278 134.697486 
L 240.156799 137.86949 
L 244.641843 140.787313 
L 248.794346 143.488657 
L 252.660233 146.00341 
L 256.276529 148.355666 
L 259.673517 150.565132 
L 262.876282 152.648134 
L 265.905839 154.618345 
L 268.779963 156.487335 
L 291.499447 171.254572 
L 307.619177 181.719862 
L 320.122611 189.824834 
L 330.33866 196.434418 
L 338.976207 202.010071 
L 346.45839 206.82732 
L 353.058144 211.063961 
L 358.961824 214.841466 
L 364.302353 218.246547 
L 369.177874 221.343297 
L 373.662918 224.180452 
L 377.815421 226.795954 
L 381.681308 229.219937 
L 385.297604 231.476743 
L 388.694592 233.586332 
L 391.897357 235.565278 
L 394.926914 237.427503 
L 397.801038 239.184822 
" clip-path="url(#p2f7702af41)" style="fill: none; stroke-dasharray: 5.55,2.4; stroke-dashoffset: 0; stroke: #ff7f0e; stroke-width: 1.5"/>
   </g>
   <g id="line2d_149">
    <path d="M 112.973041 181.871841 
L 113.318869 181.871841 
L 113.662576 181.871841 
L 114.004188 181.871841 
L 114.34373 181.871841 
L 114.681226 181.871841 
L 115.016702 181.871841 
L 115.350182 181.871841 
L 115.681688 181.871841 
L 116.011245 181.871841 
L 116.338874 181.871841 
L 116.6646 181.871841 
L 116.988442 181.871841 
L 117.310424 181.871841 
L 117.630566 181.871841 
L 117.948889 181.871841 
L 118.265415 181.871841 
L 118.580162 181.871841 
L 118.893151 181.871841 
L 119.204401 181.871841 
L 119.513933 181.871841 
L 119.821763 181.871841 
L 120.127912 181.871841 
L 120.432397 181.871841 
L 120.735237 181.871841 
L 121.036448 181.871841 
L 121.336049 181.871841 
L 121.634057 181.871841 
L 121.930488 181.871841 
L 122.225359 181.871841 
L 122.518686 181.871841 
L 122.810486 181.871841 
L 123.100775 181.871841 
L 123.389567 181.871841 
L 123.676878 181.871841 
L 123.962724 181.871841 
L 124.247118 181.871841 
L 124.530077 181.871841 
L 124.811614 181.871841 
L 125.091743 181.871841 
L 125.370479 181.871841 
L 125.647836 181.871841 
L 125.923826 181.871841 
L 126.198463 181.871841 
L 126.471761 181.871841 
L 126.743732 181.871841 
L 127.01439 181.871841 
L 127.283746 181.871841 
L 127.551814 181.871841 
L 127.818606 181.871841 
L 128.084133 181.871841 
L 128.348408 181.871841 
L 128.611443 181.871841 
L 128.873248 181.871841 
L 129.133836 181.871841 
L 129.393217 181.871841 
L 129.651404 181.871841 
L 129.908406 181.871841 
L 130.164235 181.871841 
L 130.418901 181.871841 
L 130.672415 181.871841 
L 130.924787 181.871841 
L 131.176027 181.871841 
L 131.426146 181.871841 
L 131.675154 181.871841 
L 131.923059 181.871841 
L 132.169873 181.871841 
L 132.415605 181.871841 
L 132.660263 181.871841 
L 132.903858 181.871841 
L 133.146398 181.871841 
L 133.387894 181.871841 
L 133.628352 181.871841 
L 133.867784 181.871841 
L 134.106196 181.871841 
L 134.343599 181.871841 
L 134.579999 181.871841 
L 134.815407 181.871841 
L 135.04983 181.871841 
L 135.283276 181.871841 
L 135.515754 181.871841 
L 135.747271 181.871841 
L 135.977835 181.871841 
L 136.207455 181.871841 
L 136.436137 181.871841 
L 136.66389 181.871841 
L 136.890721 181.871841 
L 137.116638 181.871841 
L 137.341647 181.871841 
L 137.565756 181.871841 
L 137.788973 181.871841 
L 138.011303 181.871841 
L 138.232756 181.871841 
L 138.453336 181.871841 
L 138.673051 181.871841 
L 138.891909 181.871841 
L 139.109914 181.871841 
L 139.327075 181.871841 
L 139.543398 181.871841 
L 139.758888 181.871841 
" clip-path="url(#p2f7702af41)" style="fill: none; stroke: #000000; stroke-width: 1.5; stroke-linecap: square"/>
   </g>
   <g id="line2d_150">
    <path d="M 112.973041 205.226155 
L 113.318869 205.226155 
L 113.662576 205.226155 
L 114.004188 205.226155 
L 114.34373 205.226155 
L 114.681226 205.226155 
L 115.016702 205.226155 
L 115.350182 205.226155 
L 115.681688 205.226155 
L 116.011245 205.226155 
L 116.338874 205.226155 
L 116.6646 205.226155 
L 116.988442 205.226155 
L 117.310424 205.226155 
L 117.630566 205.226155 
L 117.948889 205.226155 
L 118.265415 205.226155 
L 118.580162 205.226155 
L 118.893151 205.226155 
L 119.204401 205.226155 
L 119.513933 205.226155 
L 119.821763 205.226155 
L 120.127912 205.226155 
L 120.432397 205.226155 
L 120.735237 205.226155 
L 121.036448 205.226155 
L 121.336049 205.226155 
L 121.634057 205.226155 
L 121.930488 205.226155 
L 122.225359 205.226155 
L 122.518686 205.226155 
L 122.810486 205.226155 
L 123.100775 205.226155 
L 123.389567 205.226155 
L 123.676878 205.226155 
L 123.962724 205.226155 
L 124.247118 205.226155 
L 124.530077 205.226155 
L 124.811614 205.226155 
L 125.091743 205.226155 
L 125.370479 205.226155 
L 125.647836 205.226155 
L 125.923826 205.226155 
L 126.198463 205.226155 
L 126.471761 205.226155 
L 126.743732 205.226155 
L 127.01439 205.226155 
L 127.283746 205.226155 
L 127.551814 205.226155 
L 127.818606 205.226155 
L 128.084133 205.226155 
L 128.348408 205.226155 
L 128.611443 205.226155 
L 128.873248 205.226155 
L 129.133836 205.226155 
L 129.393217 205.226155 
L 129.651404 205.226155 
L 129.908406 205.226155 
L 130.164235 205.226155 
L 130.418901 205.226155 
L 130.672415 205.226155 
L 130.924787 205.226155 
L 131.176027 205.226155 
L 131.426146 205.226155 
L 131.675154 205.226155 
L 131.923059 205.226155 
L 132.169873 205.226155 
L 132.415605 205.226155 
L 132.660263 205.226155 
L 132.903858 205.226155 
L 133.146398 205.226155 
L 133.387894 205.226155 
L 133.628352 205.226155 
L 133.867784 205.226155 
L 134.106196 205.226155 
L 134.343599 205.226155 
L 134.579999 205.226155 
L 134.815407 205.226155 
L 135.04983 205.226155 
L 135.283276 205.226155 
L 135.515754 205.226155 
L 135.747271 205.226155 
L 135.977835 205.226155 
L 136.207455 205.226155 
L 136.436137 205.226155 
L 136.66389 205.226155 
L 136.890721 205.226155 
L 137.116638 205.226155 
L 137.341647 205.226155 
L 137.565756 205.226155 
L 137.788973 205.226155 
L 138.011303 205.226155 
L 138.232756 205.226155 
L 138.453336 205.226155 
L 138.673051 205.226155 
L 138.891909 205.226155 
L 139.109914 205.226155 
L 139.327075 205.226155 
L 139.543398 205.226155 
L 139.758888 205.226155 
" clip-path="url(#p2f7702af41)" style="fill: none; stroke-dasharray: 5.55,2.4; stroke-dashoffset: 0; stroke: #000000; stroke-width: 1.5"/>
   </g>
   <g id="patch_3">
    <path d="M 86.075606 261.98145 
L 86.075606 36.999 
" style="fill: none; stroke: #000000; stroke-width: 0.8; stroke-linejoin: miter; stroke-linecap: square"/>
   </g>
   <g id="patch_4">
    <path d="M 412.645106 261.98145 
L 412.645106 36.999 
" style="fill: none; stroke: #000000; stroke-width: 0.8; stroke-linejoin: miter; stroke-linecap: square"/>
   </g>
   <g id="patch_5">
    <path d="M 86.075606 261.98145 
L 412.645106 261.98145 
" style="fill: none; stroke: #000000; stroke-width: 0.8; stroke-linejoin: miter; stroke-linecap: square"/>
   </g>
   <g id="patch_6">
    <path d="M 86.075606 36.999 
L 412.645106 36.999 
" style="fill: none; stroke: #000000; stroke-width: 0.8; stroke-linejoin: miter; stroke-linecap: square"/>
   </g>
   <g id="text_10">
    <!-- vGH -->
    <g transform="translate(149.974938 187.116934) scale(0.2 -0.2)">
     <defs>
      <path id="CMR17-76" d="M 2502 2163 
C 2560 2304 2662 2560 3034 2560 
L 3034 2726 
C 2912 2726 2752 2726 2630 2726 
C 2496 2726 2285 2726 2157 2732 
L 2157 2566 
C 2317 2553 2406 2477 2406 2311 
C 2406 2253 2406 2240 2368 2151 
L 1664 377 
L 902 2286 
C 864 2369 864 2381 864 2407 
C 864 2560 1075 2560 1171 2560 
L 1171 2732 
C 1018 2726 736 2726 576 2726 
C 403 2726 205 2726 64 2732 
L 64 2560 
C 307 2560 442 2560 518 2362 
L 1446 44 
C 1485 -51 1491 -64 1549 -64 
C 1606 -64 1613 -51 1651 44 
L 2502 2163 
z
" transform="scale(0.015625)"/>
      <path id="CMR17-47" d="M 3974 1233 
C 3974 1473 3994 1505 4390 1505 
L 4390 1670 
C 4237 1664 3891 1664 3718 1664 
C 3539 1664 3040 1664 2797 1664 
L 2797 1505 
L 2989 1505 
C 3539 1505 3552 1434 3552 1201 
L 3552 774 
C 3552 63 2720 63 2522 63 
C 1862 63 781 511 781 2160 
C 781 3808 1843 4250 2464 4250 
C 3187 4250 3712 3626 3834 2741 
C 3846 2664 3846 2651 3904 2651 
C 3974 2651 3974 2664 3974 2779 
L 3974 4288 
C 3974 4402 3968 4409 3930 4409 
C 3904 4409 3898 4402 3853 4326 
L 3571 3791 
C 3258 4187 2874 4416 2381 4416 
C 1286 4416 294 3456 294 2148 
C 294 845 1267 -128 2394 -128 
C 2912 -128 3418 56 3616 417 
C 3725 158 3904 -20 3936 -20 
C 3968 -20 3974 -13 3974 100 
L 3974 1233 
z
" transform="scale(0.015625)"/>
      <path id="CMR17-48" d="M 3590 3905 
C 3590 4192 3661 4192 4102 4192 
L 4102 4352 
C 3917 4352 3578 4352 3379 4352 
C 3181 4352 2842 4352 2656 4352 
L 2656 4192 
C 3098 4192 3168 4192 3168 3904 
L 3168 2341 
L 1261 2341 
L 1261 3904 
C 1261 4192 1331 4192 1773 4192 
L 1773 4352 
C 1587 4352 1248 4352 1050 4352 
C 851 4352 512 4352 326 4352 
L 326 4192 
C 768 4192 838 4192 838 3905 
L 838 447 
C 838 160 768 160 326 160 
L 326 0 
C 512 0 851 0 1050 0 
C 1248 0 1587 0 1773 0 
L 1773 160 
C 1331 160 1261 160 1261 446 
L 1261 2176 
L 3168 2176 
L 3168 446 
C 3168 160 3098 160 2656 160 
L 2656 0 
C 2842 0 3181 0 3379 0 
C 3578 0 3917 0 4102 0 
L 4102 160 
C 3661 160 3590 160 3590 447 
L 3590 3905 
z
" transform="scale(0.015625)"/>
     </defs>
     <use xlink:href="#CMR17-76" transform="scale(0.996264)"/>
     <use xlink:href="#CMR17-47" transform="translate(48.292916 0) scale(0.996264)"/>
     <use xlink:href="#CMR17-48" transform="translate(120.648262 0) scale(0.996264)"/>
    </g>
   </g>
   <g id="text_11">
    <!-- BW pert. -->
    <g transform="translate(149.974938 212.392208) scale(0.2 -0.2)">
     <defs>
      <path id="CMR17-42" d="M 333 4352 
L 333 4186 
C 774 4186 845 4186 845 3900 
L 845 452 
C 845 166 774 166 333 166 
L 333 0 
L 2534 0 
C 3354 0 3885 583 3885 1164 
C 3885 1741 3360 2233 2675 2233 
C 3290 2356 3718 2771 3718 3264 
C 3718 3802 3194 4352 2368 4352 
L 333 4352 
z
M 1248 2304 
L 1248 3937 
C 1248 4155 1261 4186 1517 4186 
L 2336 4186 
C 2970 4186 3251 3674 3251 3277 
C 3251 2791 2861 2304 2170 2304 
L 1248 2304 
z
M 1517 166 
C 1261 166 1248 197 1248 413 
L 1248 2202 
L 2432 2202 
C 3091 2202 3411 1625 3411 1162 
C 3411 699 3046 166 2349 166 
L 1517 166 
z
" transform="scale(0.015625)"/>
      <path id="CMR17-57" d="M 5523 3764 
C 5581 3936 5677 4160 6048 4160 
L 6048 4326 
C 5939 4326 5715 4326 5600 4326 
C 5440 4326 5158 4326 5005 4332 
L 5005 4160 
C 5293 4160 5414 4000 5414 3847 
C 5414 3802 5408 3777 5382 3707 
L 4390 555 
L 3347 3873 
C 3328 3937 3322 3963 3322 3988 
C 3322 4160 3603 4160 3725 4160 
L 3725 4326 
C 3539 4326 3219 4326 3021 4326 
C 2861 4326 2573 4326 2426 4332 
L 2426 4160 
C 2720 4160 2797 4141 2861 4027 
C 2886 3969 2989 3638 2989 3619 
C 2989 3593 2976 3555 2970 3536 
L 2029 561 
L 986 3867 
C 954 3957 954 3969 954 3982 
C 954 4160 1235 4160 1363 4160 
L 1363 4326 
C 1178 4326 858 4326 659 4326 
C 493 4326 211 4326 58 4332 
L 58 4160 
C 442 4160 467 4122 531 3918 
L 1779 -20 
C 1811 -115 1811 -128 1869 -128 
C 1920 -128 1939 -115 1965 -26 
L 3053 3433 
L 4141 -26 
C 4166 -115 4186 -128 4237 -128 
C 4294 -128 4294 -115 4326 -20 
L 5523 3764 
z
" transform="scale(0.015625)"/>
      <path id="CMR17-70" d="M 1408 -1063 
C 998 -1063 973 -1037 973 -789 
L 973 402 
C 1158 134 1427 -38 1766 -38 
C 2406 -38 3053 523 3053 1388 
C 3053 2191 2496 2802 1837 2802 
C 1453 2802 1139 2592 960 2338 
L 960 2802 
L 198 2732 
L 198 2567 
C 576 2567 634 2528 634 2223 
L 634 -789 
C 634 -1031 608 -1063 198 -1063 
L 198 -1228 
C 352 -1216 634 -1216 800 -1216 
C 966 -1216 1254 -1216 1408 -1228 
L 1408 -1063 
z
M 973 2012 
C 973 2102 973 2235 1222 2471 
C 1254 2497 1472 2688 1792 2688 
C 2259 2688 2643 2108 2643 1382 
C 2643 656 2234 64 1728 64 
C 1498 64 1248 172 1056 472 
C 973 612 973 650 973 752 
L 973 2012 
z
" transform="scale(0.015625)"/>
      <path id="CMR17-65" d="M 2438 1472 
C 2464 1498 2464 1511 2464 1576 
C 2464 2238 2118 2816 1389 2816 
C 710 2816 173 2169 173 1383 
C 173 551 781 -64 1459 -64 
C 2176 -64 2458 607 2458 740 
C 2458 784 2419 784 2406 784 
C 2362 784 2355 771 2330 696 
C 2189 265 1837 51 1504 51 
C 1229 51 954 203 781 480 
C 582 803 582 1176 582 1472 
L 2438 1472 
z
M 589 1568 
C 634 2505 1126 2714 1382 2714 
C 1818 2714 2112 2297 2118 1568 
L 589 1568 
z
" transform="scale(0.015625)"/>
      <path id="CMR17-72" d="M 960 1497 
C 960 2112 1222 2688 1702 2688 
C 1747 2688 1792 2682 1837 2662 
C 1837 2662 1696 2617 1696 2452 
C 1696 2298 1818 2234 1914 2234 
C 1990 2234 2131 2279 2131 2458 
C 2131 2663 1926 2790 1709 2790 
C 1222 2790 1011 2317 947 2093 
L 941 2093 
L 941 2790 
L 198 2720 
L 198 2554 
C 576 2554 634 2515 634 2208 
L 634 428 
C 634 184 608 153 198 153 
L 198 -13 
C 352 0 646 0 813 0 
C 998 0 1325 0 1498 -13 
L 1498 153 
C 1037 153 960 153 960 440 
L 960 1497 
z
" transform="scale(0.015625)"/>
      <path id="CMR17-74" d="M 966 2560 
L 1862 2560 
L 1862 2725 
L 966 2725 
L 966 3904 
L 851 3904 
C 838 3245 614 2668 70 2668 
L 70 2560 
L 627 2560 
L 627 771 
C 627 650 627 -64 1370 -64 
C 1747 -64 1965 306 1965 777 
L 1965 1140 
L 1850 1140 
L 1850 783 
C 1850 344 1677 51 1408 51 
C 1222 51 966 178 966 758 
L 966 2560 
z
" transform="scale(0.015625)"/>
      <path id="CMR17-2e" d="M 1062 261 
C 1062 420 934 522 800 522 
C 672 522 538 420 538 261 
C 538 102 666 0 800 0 
C 928 0 1062 102 1062 261 
z
" transform="scale(0.015625)"/>
     </defs>
     <use xlink:href="#CMR17-42" transform="scale(0.996264)"/>
     <use xlink:href="#CMR17-57" transform="translate(65.188754 0) scale(0.996264)"/>
     <use xlink:href="#CMR17-70" transform="translate(190.361371 0) scale(0.996264)"/>
     <use xlink:href="#CMR17-65" transform="translate(243.859179 0) scale(0.996264)"/>
     <use xlink:href="#CMR17-72" transform="translate(284.34484 0) scale(0.996264)"/>
     <use xlink:href="#CMR17-74" transform="translate(319.625607 0) scale(0.996264)"/>
     <use xlink:href="#CMR17-2e" transform="translate(354.906375 0) scale(0.996264)"/>
    </g>
   </g>
   <g id="legend_1">
    <g id="patch_7">
     <path d="M 259.320887 90.810489 
L 402.145106 90.810489 
Q 405.145106 90.810489 405.145106 87.810489 
L 405.145106 47.499 
Q 405.145106 44.499 402.145106 44.499 
L 259.320887 44.499 
Q 256.320887 44.499 256.320887 47.499 
L 256.320887 87.810489 
Q 256.320887 90.810489 259.320887 90.810489 
z
" style="fill: #ffffff; opacity: 0.8; stroke: #cccccc; stroke-linejoin: miter"/>
    </g>
    <g id="line2d_151">
     <path d="M 262.320887 55.749 
L 277.320887 55.749 
L 292.320887 55.749 
" style="fill: none; stroke: #1f77b4; stroke-width: 1.5; stroke-linecap: square"/>
    </g>
    <g id="text_12">
     <!-- $B = 0.5\cdot 10^{-2} t$ -->
     <g transform="translate(304.320887 60.999) scale(0.15 -0.15)">
      <defs>
       <path id="CMMI12-42" d="M 2342 3921 
C 2400 4160 2426 4160 2675 4160 
L 3507 4160 
C 4230 4160 4230 3544 4230 3485 
C 4230 2966 3712 2304 2867 2304 
L 1946 2304 
L 2342 3921 
z
M 3424 2275 
C 4122 2402 4755 2886 4755 3473 
C 4755 3970 4314 4352 3590 4352 
L 1536 4352 
C 1414 4352 1357 4352 1357 4226 
C 1357 4160 1414 4160 1510 4160 
C 1901 4160 1901 4112 1901 4044 
C 1901 4032 1901 3993 1875 3897 
L 1011 472 
C 954 249 941 185 493 185 
C 371 185 307 185 307 70 
C 307 0 346 0 474 0 
L 2669 0 
C 3648 0 4403 739 4403 1383 
C 4403 1906 3942 2224 3424 2275 
z
M 2515 185 
L 1651 185 
C 1562 185 1549 185 1510 192 
C 1440 198 1434 211 1434 261 
C 1434 305 1446 343 1459 399 
L 1907 2176 
L 3110 2176 
C 3866 2176 3866 1483 3866 1433 
C 3866 828 3309 185 2515 185 
z
" transform="scale(0.015625)"/>
       <path id="CMR17-3d" d="M 4115 2017 
C 4211 2017 4307 2017 4307 2125 
C 4307 2240 4198 2240 4090 2240 
L 512 2240 
C 403 2240 294 2240 294 2125 
C 294 2017 390 2017 486 2017 
L 4115 2017 
z
M 4090 896 
C 4198 896 4307 896 4307 1011 
C 4307 1119 4211 1119 4115 1119 
L 486 1119 
C 390 1119 294 1119 294 1011 
C 294 896 403 896 512 896 
L 4090 896 
z
" transform="scale(0.015625)"/>
       <path id="CMMI12-3a" d="M 1178 307 
C 1178 492 1024 619 870 619 
C 685 619 557 466 557 313 
C 557 128 710 0 864 0 
C 1050 0 1178 153 1178 307 
z
" transform="scale(0.015625)"/>
       <path id="CMSY10-1" d="M 1229 1619 
C 1229 1805 1075 1958 890 1958 
C 704 1958 550 1805 550 1619 
C 550 1433 704 1280 890 1280 
C 1075 1280 1229 1433 1229 1619 
z
" transform="scale(0.015625)"/>
      </defs>
      <use xlink:href="#CMMI12-42" transform="scale(0.996264)"/>
      <use xlink:href="#CMR17-3d" transform="translate(106.809532 0) scale(0.996264)"/>
      <use xlink:href="#CMR17-30" transform="translate(206.198329 0) scale(0.996264)"/>
      <use xlink:href="#CMMI12-3a" transform="translate(251.888806 0) scale(0.996264)"/>
      <use xlink:href="#CMR17-35" transform="translate(278.985983 0) scale(0.996264)"/>
      <use xlink:href="#CMSY10-1" transform="translate(346.815667 0) scale(0.996264)"/>
      <use xlink:href="#CMR17-31" transform="translate(396.628959 0) scale(0.996264)"/>
      <use xlink:href="#CMR17-30" transform="translate(442.319436 0) scale(0.996264)"/>
      <use xlink:href="#CMSY10-0" transform="translate(488.009913 36.153639) scale(0.697382)"/>
      <use xlink:href="#CMR17-32" transform="translate(542.250907 36.153639) scale(0.697382)"/>
      <use xlink:href="#CMMI12-74" transform="translate(574.732221 0) scale(0.996264)"/>
     </g>
    </g>
    <g id="line2d_152">
     <path d="M 262.320887 76.654745 
L 277.320887 76.654745 
L 292.320887 76.654745 
" style="fill: none; stroke: #ff7f0e; stroke-width: 1.5; stroke-linecap: square"/>
    </g>
    <g id="text_13">
     <!-- $B = 10^0 t$ -->
     <g transform="translate(304.320887 81.904745) scale(0.15 -0.15)">
      <use xlink:href="#CMMI12-42" transform="scale(0.996264)"/>
      <use xlink:href="#CMR17-3d" transform="translate(106.809532 0) scale(0.996264)"/>
      <use xlink:href="#CMR17-31" transform="translate(206.198329 0) scale(0.996264)"/>
      <use xlink:href="#CMR17-30" transform="translate(251.888806 0) scale(0.996264)"/>
      <use xlink:href="#CMR17-30" transform="translate(297.579283 36.153639) scale(0.697382)"/>
      <use xlink:href="#CMMI12-74" transform="translate(330.060597 0) scale(0.996264)"/>
     </g>
    </g>
   </g>
  </g>
  <g id="text_14">
   <!-- b) $t_x=\frac{1}{4}t,t_y=\frac{3}{4}t$ -->
   <g transform="translate(171.417124 24.033679) scale(0.2 -0.2)">
    <defs>
     <path id="CMR17-62" d="M 960 4396 
L 198 4326 
L 198 4160 
C 576 4160 634 4122 634 3817 
L 634 -13 
L 749 -13 
L 934 441 
C 1120 141 1395 -64 1766 -64 
C 2406 -64 3053 500 3053 1370 
C 3053 2188 2477 2790 1830 2790 
C 1434 2790 1152 2579 960 2330 
L 960 4396 
z
M 973 2004 
C 973 2118 973 2138 1062 2272 
C 1312 2657 1670 2688 1792 2688 
C 1984 2688 2643 2585 2643 1376 
C 2643 108 1888 38 1734 38 
C 1536 38 1248 114 1043 486 
C 973 608 973 621 973 735 
L 973 2004 
z
" transform="scale(0.015625)"/>
     <path id="CMMI12-78" d="M 3034 2606 
C 2829 2567 2752 2414 2752 2293 
C 2752 2139 2874 2088 2963 2088 
C 3155 2088 3290 2254 3290 2427 
C 3290 2695 2982 2816 2714 2816 
C 2323 2816 2106 2433 2048 2312 
C 1901 2816 1504 2816 1389 2816 
C 736 2816 390 1980 390 1839 
C 390 1814 416 1782 461 1782 
C 512 1782 525 1820 538 1846 
C 755 2555 1184 2689 1370 2689 
C 1658 2689 1715 2420 1715 2267 
C 1715 2127 1677 1980 1600 1673 
L 1382 798 
C 1286 415 1101 64 762 64 
C 730 64 570 64 435 147 
C 666 192 717 383 717 460 
C 717 588 621 664 499 664 
C 346 664 179 530 179 326 
C 179 57 480 -64 755 -64 
C 1062 -64 1280 179 1414 441 
C 1517 64 1837 -64 2074 -64 
C 2726 -64 3072 773 3072 913 
C 3072 945 3046 971 3008 971 
C 2950 971 2944 939 2925 888 
C 2752 326 2381 64 2093 64 
C 1869 64 1747 230 1747 492 
C 1747 632 1773 734 1875 1156 
L 2099 2024 
C 2195 2408 2413 2689 2707 2689 
C 2720 2689 2899 2689 3034 2606 
z
" transform="scale(0.015625)"/>
     <path id="CMMI12-3b" d="M 1248 -31 
C 1248 343 1126 619 864 619 
C 659 619 557 453 557 313 
C 557 172 653 0 870 0 
C 954 0 1024 26 1082 83 
C 1094 96 1101 96 1107 96 
C 1120 96 1120 5 1120 -27 
C 1120 -240 1082 -659 710 -1080 
C 640 -1157 640 -1170 640 -1183 
C 640 -1216 672 -1248 704 -1248 
C 755 -1248 1248 -771 1248 -31 
z
" transform="scale(0.015625)"/>
     <path id="CMMI12-79" d="M 1683 -700 
C 1510 -939 1261 -1152 947 -1152 
C 870 -1152 563 -1152 467 -889 
C 486 -895 518 -895 531 -895 
C 723 -895 851 -729 851 -582 
C 851 -435 730 -384 634 -384 
C 531 -384 307 -458 307 -759 
C 307 -1071 582 -1286 947 -1286 
C 1587 -1286 2234 -700 2413 6 
L 3040 2485 
C 3046 2517 3059 2556 3059 2594 
C 3059 2689 2982 2753 2886 2753 
C 2829 2753 2694 2727 2643 2535 
L 2170 658 
C 2138 543 2138 530 2086 460 
C 1958 281 1747 64 1440 64 
C 1082 64 1050 415 1050 588 
C 1050 952 1222 1443 1395 1903 
C 1466 2088 1504 2178 1504 2305 
C 1504 2574 1312 2816 998 2816 
C 410 2816 173 1890 173 1839 
C 173 1814 198 1782 243 1782 
C 301 1782 307 1807 333 1897 
C 486 2433 730 2689 979 2689 
C 1037 2689 1146 2689 1146 2478 
C 1146 2312 1075 2127 979 1884 
C 666 1047 666 837 666 683 
C 666 77 1101 -64 1421 -64 
C 1606 -64 1837 -6 2061 230 
L 2067 224 
C 1971 -147 1907 -392 1683 -700 
z
" transform="scale(0.015625)"/>
    </defs>
    <use xlink:href="#CMR17-62" transform="scale(0.996264)"/>
    <use xlink:href="#CMR17-29" transform="translate(50.89537 0) scale(0.996264)"/>
    <use xlink:href="#CMMI12-74" transform="translate(116.252104 0) scale(0.996264)"/>
    <use xlink:href="#CMMI12-78" transform="translate(151.478434 -14.943915) scale(0.697382)"/>
    <use xlink:href="#CMR17-3d" transform="translate(218.454234 0) scale(0.996264)"/>
    <use xlink:href="#CMR17-31" transform="translate(319.038545 39.226102) scale(0.697382)"/>
    <use xlink:href="#CMR17-34" transform="translate(319.038545 -34.355253) scale(0.697382)"/>
    <use xlink:href="#CMMI12-74" transform="translate(352.217241 0) scale(0.996264)"/>
    <use xlink:href="#CMMI12-3b" transform="translate(387.443571 0) scale(0.996264)"/>
    <use xlink:href="#CMMI12-74" transform="translate(431.145153 0) scale(0.996264)"/>
    <use xlink:href="#CMMI12-79" transform="translate(466.371484 -14.943915) scale(0.697382)"/>
    <use xlink:href="#CMR17-3d" transform="translate(530.340599 0) scale(0.996264)"/>
    <use xlink:href="#CMR17-33" transform="translate(630.92491 39.226102) scale(0.697382)"/>
    <use xlink:href="#CMR17-34" transform="translate(630.92491 -34.355253) scale(0.697382)"/>
    <use xlink:href="#CMMI12-74" transform="translate(664.103606 0) scale(0.996264)"/>
    <path d="M 319.038545 22.914133 
L 351.021727 22.914133 
L 351.021727 26.899083 
L 319.038545 26.899083 
L 319.038545 22.914133 
z
"/>
    <path d="M 630.92491 22.914133 
L 662.908092 22.914133 
L 662.908092 26.899083 
L 630.92491 26.899083 
L 630.92491 22.914133 
z
"/>
   </g>
  </g>
 </g>
 <defs>
  <clipPath id="p2f7702af41">
   <rect x="86.075606" y="36.999" width="326.5695" height="224.98245"/>
  </clipPath>
 </defs>
</svg>
